<svg width="16" height="17" viewBox="0 0 16 17" fill="none" xmlns="http://www.w3.org/2000/svg">
<g clip-path="url(#clip0_121_2261)">
<path d="M10.5 7.14771V4.17896C10.5 3.51591 10.2366 2.88003 9.76777 2.41119C9.29893 1.94235 8.66304 1.67896 8 1.67896C7.33696 1.67896 6.70107 1.94235 6.23223 2.41119C5.76339 2.88003 5.5 3.51591 5.5 4.17896V7.14771" stroke="black" stroke-linecap="round" stroke-linejoin="round"/>
<path d="M11.5 7.14771H4.5C3.67157 7.14771 3 7.81928 3 8.64771V14.1477C3 14.9761 3.67157 15.6477 4.5 15.6477H11.5C12.3284 15.6477 13 14.9761 13 14.1477V8.64771C13 7.81928 12.3284 7.14771 11.5 7.14771Z" stroke="black" stroke-linecap="round" stroke-linejoin="round"/>
</g>
<defs>
<clipPath id="clip0_121_2261">
<rect width="16" height="16" fill="white" transform="translate(0 0.647705)"/>
</clipPath>
</defs>
</svg>
