<svg width="18" height="18" viewBox="0 0 18 18" fill="none" xmlns="http://www.w3.org/2000/svg">
<path d="M9.10196 1.68745C4.98938 1.6319 1.63196 4.98932 1.68751 9.1019C1.74235 13.0461 4.95388 16.2576 8.89806 16.3124C13.0113 16.3687 16.3681 13.0113 16.3118 8.8987C16.2577 4.95381 13.0461 1.74229 9.10196 1.68745ZM13.5464 13.1923C13.5324 13.2075 13.5152 13.2194 13.4961 13.2271C13.477 13.2349 13.4564 13.2384 13.4358 13.2373C13.4152 13.2362 13.3951 13.2306 13.3769 13.2209C13.3587 13.2112 13.3429 13.1976 13.3306 13.1811C13.0161 12.7697 12.631 12.4174 12.1932 12.1408C11.2982 11.5664 10.164 11.2499 9.00001 11.2499C7.83598 11.2499 6.70184 11.5664 5.80677 12.1408C5.36903 12.4173 4.98393 12.7694 4.66946 13.1807C4.65711 13.1972 4.64127 13.2108 4.62307 13.2206C4.60488 13.2303 4.58477 13.2359 4.56417 13.2369C4.54357 13.238 4.52299 13.2345 4.50388 13.2268C4.48477 13.219 4.46761 13.2071 4.4536 13.192C3.422 12.0784 2.83764 10.6232 2.81251 9.10542C2.7552 5.68436 5.56243 2.82088 8.98489 2.81245C12.4074 2.80401 15.1875 5.58311 15.1875 8.99995C15.1887 10.5543 14.6025 12.0518 13.5464 13.1923Z" fill="black"/>
<path d="M9 5.0625C8.30672 5.0625 7.67988 5.3223 7.23445 5.79445C6.78902 6.2666 6.56649 6.91945 6.61676 7.62012C6.71871 9 7.78781 10.125 9 10.125C10.2122 10.125 11.2792 9 11.3832 7.62047C11.4353 6.92648 11.2145 6.27961 10.7617 5.79867C10.3145 5.32406 9.68871 5.0625 9 5.0625Z" fill="black"/>
</svg>
